<svg xmlns="http://www.w3.org/2000/svg" xmlns:xlink="http://www.w3.org/1999/xlink" width="1023" zoomAndPan="magnify" viewBox="0 0 767.25 225.75" height="301" preserveAspectRatio="xMidYMid meet" version="1.0"><defs><g></g><clipPath id="f49176e0d6"><path d="M 0.0507812 0 L 766.449219 0 L 766.449219 225.5 L 0.0507812 225.5 Z M 0.0507812 0 " clip-rule="nonzero" data-index="0"></path></clipPath><clipPath id="8c098c8b8b"><path d="M 497.542969 45.101562 L 723.480469 45.101562 L 723.480469 141.128906 L 497.542969 141.128906 Z M 497.542969 45.101562 " clip-rule="nonzero" data-index="1"></path></clipPath></defs><g clip-path="url(#f49176e0d6)"><path fill="#ffffff" d="M 0.0507812 0 L 766.449219 0 L 766.449219 225.5 L 0.0507812 225.5 Z M 0.0507812 0 " fill-opacity="1" fill-rule="nonzero" data-index="2"></path><path fill="#ffffff" d="M 0.0507812 0 L 766.449219 0 L 766.449219 225.5 L 0.0507812 225.5 Z M 0.0507812 0 " fill-opacity="1" fill-rule="nonzero" data-index="3" style="opacity: 1;"></path></g><path fill="#6a0dad" d="M 290.113281 69.671875 L 281.667969 69.671875 C 281.171875 67.242188 280.296875 65.109375 279.046875 63.269531 C 277.820312 61.433594 276.324219 59.886719 274.550781 58.640625 C 272.804688 57.367188 270.863281 56.414062 268.730469 55.777344 C 266.59375 55.144531 264.371094 54.824219 262.054688 54.824219 C 257.832031 54.824219 254.007812 55.894531 250.578125 58.027344 C 247.175781 60.160156 244.460938 63.304688 242.441406 67.460938 C 240.441406 71.613281 239.445312 76.710938 239.445312 82.75 C 239.445312 88.789062 240.441406 93.882812 242.441406 98.039062 C 244.460938 102.195312 247.175781 105.335938 250.578125 107.472656 C 254.007812 109.605469 257.832031 110.671875 262.054688 110.671875 C 264.371094 110.671875 266.59375 110.355469 268.730469 109.71875 C 270.863281 109.082031 272.804688 108.140625 274.550781 106.894531 C 276.324219 105.621094 277.820312 104.066406 279.046875 102.226562 C 280.296875 100.367188 281.171875 98.230469 281.667969 95.824219 L 290.113281 95.824219 C 289.480469 99.390625 288.320312 102.578125 286.640625 105.394531 C 284.960938 108.210938 282.871094 110.605469 280.375 112.582031 C 277.878906 114.53125 275.074219 116.019531 271.964844 117.039062 C 268.875 118.0625 265.574219 118.574219 262.054688 118.574219 C 256.105469 118.574219 250.816406 117.121094 246.1875 114.214844 C 241.554688 111.308594 237.910156 107.175781 235.253906 101.820312 C 232.597656 96.460938 231.269531 90.105469 231.269531 82.75 C 231.269531 75.394531 232.597656 69.039062 235.253906 63.679688 C 237.910156 58.320312 241.554688 54.191406 246.1875 51.285156 C 250.816406 48.378906 256.105469 46.925781 262.054688 46.925781 C 265.574219 46.925781 268.875 47.4375 271.964844 48.457031 C 275.074219 49.480469 277.878906 50.976562 280.375 52.953125 C 282.871094 54.90625 284.960938 57.289062 286.640625 60.105469 C 288.320312 62.894531 289.480469 66.085938 290.113281 69.671875 Z M 323.921875 118.710938 C 319.199219 118.710938 315.054688 117.585938 311.492188 115.339844 C 307.949219 113.089844 305.179688 109.945312 303.183594 105.90625 C 301.207031 101.863281 300.21875 97.144531 300.21875 91.738281 C 300.21875 86.289062 301.207031 81.535156 303.183594 77.472656 C 305.179688 73.40625 307.949219 70.25 311.492188 68.003906 C 315.054688 65.757812 319.199219 64.632812 323.921875 64.632812 C 328.644531 64.632812 332.773438 65.757812 336.316406 68.003906 C 339.882812 70.25 342.652344 73.40625 344.625 77.472656 C 346.625 81.535156 347.621094 86.289062 347.621094 91.738281 C 347.621094 97.144531 346.625 101.863281 344.625 105.90625 C 342.652344 109.945312 339.882812 113.089844 336.316406 115.339844 C 332.773438 117.585938 328.644531 118.710938 323.921875 118.710938 Z M 323.921875 111.488281 C 327.507812 111.488281 330.460938 110.570312 332.773438 108.730469 C 335.089844 106.894531 336.804688 104.476562 337.917969 101.480469 C 339.027344 98.480469 339.585938 95.234375 339.585938 91.738281 C 339.585938 88.242188 339.027344 84.984375 337.917969 81.964844 C 336.804688 78.945312 335.089844 76.507812 332.773438 74.644531 C 330.460938 72.78125 327.507812 71.851562 323.921875 71.851562 C 320.335938 71.851562 317.382812 72.78125 315.066406 74.644531 C 312.753906 76.507812 311.039062 78.945312 309.925781 81.964844 C 308.8125 84.984375 308.257812 88.242188 308.257812 91.738281 C 308.257812 95.234375 308.8125 98.480469 309.925781 101.480469 C 311.039062 104.476562 312.753906 106.894531 315.066406 108.730469 C 317.382812 110.570312 320.335938 111.488281 323.921875 111.488281 Z M 379.640625 118.710938 C 375.28125 118.710938 371.433594 117.609375 368.097656 115.40625 C 364.757812 113.183594 362.148438 110.046875 360.265625 106.007812 C 358.378906 101.945312 357.4375 97.144531 357.4375 91.601562 C 357.4375 86.109375 358.378906 81.34375 360.265625 77.300781 C 362.148438 73.261719 364.769531 70.136719 368.128906 67.9375 C 371.492188 65.734375 375.371094 64.632812 379.777344 64.632812 C 383.183594 64.632812 385.871094 65.199219 387.847656 66.335938 C 389.84375 67.449219 391.367188 68.71875 392.410156 70.148438 C 393.476562 71.558594 394.308594 72.714844 394.894531 73.621094 L 395.578125 73.621094 L 395.578125 47.878906 L 403.613281 47.878906 L 403.613281 117.621094 L 395.851562 117.621094 L 395.851562 109.582031 L 394.894531 109.582031 C 394.308594 110.535156 393.464844 111.742188 392.375 113.191406 C 391.285156 114.625 389.730469 115.90625 387.710938 117.039062 C 385.691406 118.152344 383 118.710938 379.640625 118.710938 Z M 380.730469 111.488281 C 383.953125 111.488281 386.679688 110.648438 388.902344 108.96875 C 391.128906 107.269531 392.820312 104.917969 393.976562 101.921875 C 395.136719 98.902344 395.714844 95.417969 395.714844 91.46875 C 395.714844 87.5625 395.148438 84.144531 394.011719 81.21875 C 392.875 78.265625 391.195312 75.972656 388.972656 74.339844 C 386.746094 72.679688 384 71.851562 380.730469 71.851562 C 377.324219 71.851562 374.488281 72.726562 372.21875 74.472656 C 369.96875 76.199219 368.277344 78.550781 367.144531 81.523438 C 366.03125 84.476562 365.476562 87.789062 365.476562 91.46875 C 365.476562 95.191406 366.042969 98.574219 367.175781 101.613281 C 368.335938 104.632812 370.039062 107.039062 372.285156 108.835938 C 374.554688 110.605469 377.371094 111.488281 380.730469 111.488281 Z M 441.378906 118.710938 C 436.339844 118.710938 431.992188 117.597656 428.335938 115.371094 C 424.703125 113.125 421.902344 109.992188 419.925781 105.972656 C 417.972656 101.933594 416.996094 97.234375 416.996094 91.875 C 416.996094 86.519531 417.972656 81.796875 419.925781 77.710938 C 421.902344 73.601562 424.648438 70.398438 428.167969 68.105469 C 431.707031 65.789062 435.839844 64.632812 440.5625 64.632812 C 443.285156 64.632812 445.976562 65.085938 448.632812 65.996094 C 451.289062 66.902344 453.707031 68.378906 455.886719 70.421875 C 458.066406 72.441406 459.800781 75.121094 461.097656 78.457031 C 462.390625 81.796875 463.035156 85.90625 463.035156 90.785156 L 463.035156 94.191406 L 422.71875 94.191406 L 422.71875 87.246094 L 454.863281 87.246094 C 454.863281 84.292969 454.273438 81.660156 453.09375 79.34375 C 451.9375 77.027344 450.277344 75.199219 448.121094 73.863281 C 445.988281 72.523438 443.46875 71.851562 440.5625 71.851562 C 437.359375 71.851562 434.589844 72.648438 432.253906 74.234375 C 429.9375 75.800781 428.15625 77.84375 426.90625 80.367188 C 425.65625 82.886719 425.035156 85.585938 425.035156 88.46875 L 425.035156 93.101562 C 425.035156 97.050781 425.714844 100.398438 427.078125 103.148438 C 428.460938 105.871094 430.378906 107.949219 432.832031 109.378906 C 435.285156 110.785156 438.132812 111.488281 441.378906 111.488281 C 443.492188 111.488281 445.398438 111.195312 447.101562 110.605469 C 448.824219 109.992188 450.3125 109.082031 451.5625 107.878906 C 452.808594 106.65625 453.773438 105.132812 454.457031 103.316406 L 462.21875 105.496094 C 461.402344 108.128906 460.027344 110.445312 458.097656 112.445312 C 456.167969 114.417969 453.785156 115.960938 450.949219 117.074219 C 448.109375 118.164062 444.921875 118.710938 441.378906 118.710938 Z M 441.378906 118.710938 " fill-opacity="1" fill-rule="nonzero" data-index="4" style="opacity: 1;"></path><path fill="#6a0dad" d="M 541.460938 65.3125 C 541.050781 61.863281 539.394531 59.183594 536.488281 57.277344 C 533.585938 55.371094 530.019531 54.417969 525.796875 54.417969 C 522.710938 54.417969 520.007812 54.917969 517.691406 55.914062 C 515.398438 56.914062 513.605469 58.289062 512.3125 60.035156 C 511.039062 61.785156 510.40625 63.769531 510.40625 65.996094 C 510.40625 67.855469 510.847656 69.457031 511.734375 70.796875 C 512.640625 72.113281 513.800781 73.214844 515.207031 74.101562 C 516.613281 74.960938 518.089844 75.675781 519.632812 76.246094 C 521.175781 76.789062 522.597656 77.234375 523.890625 77.574219 L 530.972656 79.480469 C 532.789062 79.957031 534.808594 80.613281 537.035156 81.453125 C 539.28125 82.292969 541.425781 83.441406 543.472656 84.894531 C 545.535156 86.324219 547.238281 88.164062 548.578125 90.410156 C 549.917969 92.660156 550.589844 95.417969 550.589844 98.6875 C 550.589844 102.453125 549.601562 105.859375 547.625 108.902344 C 545.671875 111.945312 542.8125 114.363281 539.042969 116.15625 C 535.296875 117.949219 530.746094 118.84375 525.386719 118.84375 C 520.394531 118.84375 516.070312 118.039062 512.414062 116.429688 C 508.78125 114.816406 505.921875 112.570312 503.832031 109.683594 C 501.765625 106.800781 500.597656 103.453125 500.324219 99.640625 L 509.042969 99.640625 C 509.269531 102.273438 510.15625 104.453125 511.699219 106.175781 C 513.265625 107.878906 515.242188 109.152344 517.625 109.992188 C 520.03125 110.808594 522.617188 111.21875 525.386719 111.21875 C 528.613281 111.21875 531.507812 110.695312 534.070312 109.652344 C 536.636719 108.585938 538.667969 107.109375 540.167969 105.226562 C 541.667969 103.316406 542.414062 101.09375 542.414062 98.550781 C 542.414062 96.234375 541.769531 94.351562 540.472656 92.898438 C 539.179688 91.445312 537.476562 90.265625 535.367188 89.355469 C 533.253906 88.449219 530.972656 87.652344 528.519531 86.972656 L 519.941406 84.519531 C 514.492188 82.953125 510.179688 80.71875 507 77.8125 C 503.820312 74.90625 502.230469 71.101562 502.230469 66.402344 C 502.230469 62.5 503.289062 59.09375 505.398438 56.1875 C 507.535156 53.257812 510.394531 50.988281 513.980469 49.378906 C 517.589844 47.742188 521.621094 46.925781 526.070312 46.925781 C 530.5625 46.925781 534.558594 47.730469 538.054688 49.34375 C 541.550781 50.933594 544.320312 53.113281 546.363281 55.882812 C 548.429688 58.652344 549.519531 61.796875 549.632812 65.3125 Z M 568.558594 137.234375 C 567.195312 137.234375 565.984375 137.121094 564.914062 136.894531 C 563.847656 136.691406 563.109375 136.484375 562.703125 136.28125 L 564.746094 129.199219 C 566.699219 129.695312 568.421875 129.878906 569.921875 129.742188 C 571.417969 129.605469 572.746094 128.9375 573.90625 127.734375 C 575.085938 126.554688 576.164062 124.636719 577.140625 121.976562 L 578.640625 117.890625 L 559.296875 65.3125 L 568.015625 65.3125 L 582.453125 106.996094 L 582.996094 106.996094 L 597.4375 65.3125 L 606.152344 65.3125 L 583.953125 125.246094 C 582.953125 127.949219 581.714844 130.1875 580.238281 131.957031 C 578.761719 133.75 577.050781 135.078125 575.097656 135.941406 C 573.167969 136.804688 570.988281 137.234375 568.558594 137.234375 Z M 624.796875 86.15625 L 624.796875 117.621094 L 616.761719 117.621094 L 616.761719 65.3125 L 624.527344 65.3125 L 624.527344 73.488281 L 625.207031 73.488281 C 626.433594 70.832031 628.292969 68.695312 630.792969 67.085938 C 633.289062 65.449219 636.511719 64.632812 640.464844 64.632812 C 644.003906 64.632812 647.101562 65.359375 649.757812 66.8125 C 652.414062 68.242188 654.480469 70.421875 655.957031 73.351562 C 657.433594 76.257812 658.171875 79.933594 658.171875 84.382812 L 658.171875 117.621094 L 650.132812 117.621094 L 650.132812 84.929688 C 650.132812 80.820312 649.066406 77.617188 646.933594 75.324219 C 644.796875 73.011719 641.871094 71.851562 638.148438 71.851562 C 635.582031 71.851562 633.289062 72.410156 631.269531 73.519531 C 629.269531 74.632812 627.691406 76.257812 626.535156 78.390625 C 625.378906 80.523438 624.796875 83.113281 624.796875 86.15625 Z M 694.105469 118.710938 C 689.199219 118.710938 684.980469 117.550781 681.4375 115.234375 C 677.894531 112.921875 675.171875 109.730469 673.265625 105.667969 C 671.355469 101.601562 670.402344 96.960938 670.402344 91.738281 C 670.402344 86.425781 671.378906 81.738281 673.332031 77.675781 C 675.308594 73.589844 678.054688 70.398438 681.574219 68.105469 C 685.113281 65.789062 689.246094 64.632812 693.96875 64.632812 C 697.644531 64.632812 700.960938 65.3125 703.914062 66.675781 C 706.863281 68.039062 709.28125 69.945312 711.164062 72.398438 C 713.050781 74.847656 714.21875 77.710938 714.671875 80.980469 L 706.636719 80.980469 C 706.023438 78.59375 704.660156 76.484375 702.550781 74.644531 C 700.460938 72.78125 697.644531 71.851562 694.105469 71.851562 C 690.972656 71.851562 688.226562 72.667969 685.863281 74.304688 C 683.527344 75.914062 681.699219 78.199219 680.382812 81.148438 C 679.085938 84.078125 678.441406 87.515625 678.441406 91.46875 C 678.441406 95.507812 679.074219 99.027344 680.347656 102.023438 C 681.640625 105.019531 683.457031 107.347656 685.796875 109.003906 C 688.15625 110.660156 690.925781 111.488281 694.105469 111.488281 C 696.195312 111.488281 698.089844 111.125 699.792969 110.402344 C 701.496094 109.675781 702.9375 108.628906 704.117188 107.269531 C 705.296875 105.90625 706.136719 104.269531 706.636719 102.363281 L 714.671875 102.363281 C 714.21875 105.453125 713.09375 108.234375 711.300781 110.707031 C 709.53125 113.160156 707.179688 115.113281 704.253906 116.5625 C 701.347656 117.996094 697.964844 118.710938 694.105469 118.710938 Z M 694.105469 118.710938 " fill-opacity="1" fill-rule="nonzero" data-index="5"></path><path fill="#6a0dad" d="M 257.164062 151.332031 L 255.183594 151.332031 C 255.066406 150.761719 254.863281 150.261719 254.570312 149.832031 C 254.28125 149.402344 253.929688 149.039062 253.515625 148.746094 C 253.105469 148.449219 252.652344 148.226562 252.152344 148.074219 C 251.652344 147.925781 251.128906 147.851562 250.585938 147.851562 C 249.597656 147.851562 248.703125 148.101562 247.898438 148.601562 C 247.101562 149.101562 246.464844 149.839844 245.992188 150.8125 C 245.523438 151.789062 245.289062 152.980469 245.289062 154.398438 C 245.289062 155.8125 245.523438 157.007812 245.992188 157.980469 C 246.464844 158.953125 247.101562 159.691406 247.898438 160.191406 C 248.703125 160.691406 249.597656 160.941406 250.585938 160.941406 C 251.128906 160.941406 251.652344 160.867188 252.152344 160.71875 C 252.652344 160.570312 253.105469 160.347656 253.515625 160.054688 C 253.929688 159.757812 254.28125 159.394531 254.570312 158.960938 C 254.863281 158.527344 255.066406 158.027344 255.183594 157.460938 L 257.164062 157.460938 C 257.015625 158.296875 256.742188 159.046875 256.351562 159.703125 C 255.957031 160.363281 255.464844 160.925781 254.882812 161.386719 C 254.296875 161.847656 253.640625 162.195312 252.910156 162.433594 C 252.1875 162.671875 251.414062 162.792969 250.585938 162.792969 C 249.195312 162.792969 247.953125 162.453125 246.867188 161.773438 C 245.78125 161.089844 244.929688 160.121094 244.304688 158.867188 C 243.683594 157.609375 243.371094 156.121094 243.371094 154.398438 C 243.371094 152.671875 243.683594 151.183594 244.304688 149.925781 C 244.929688 148.671875 245.78125 147.703125 246.867188 147.023438 C 247.953125 146.339844 249.195312 146 250.585938 146 C 251.414062 146 252.1875 146.121094 252.910156 146.359375 C 253.640625 146.601562 254.296875 146.949219 254.882812 147.414062 C 255.464844 147.871094 255.957031 148.429688 256.351562 149.089844 C 256.742188 149.746094 257.015625 150.492188 257.164062 151.332031 Z M 265.085938 162.824219 C 263.980469 162.824219 263.011719 162.5625 262.175781 162.035156 C 261.34375 161.507812 260.695312 160.769531 260.226562 159.824219 C 259.765625 158.878906 259.53125 157.769531 259.53125 156.503906 C 259.53125 155.226562 259.765625 154.113281 260.226562 153.160156 C 260.695312 152.207031 261.34375 151.46875 262.175781 150.941406 C 263.011719 150.414062 263.980469 150.152344 265.085938 150.152344 C 266.195312 150.152344 267.164062 150.414062 267.992188 150.941406 C 268.828125 151.46875 269.476562 152.207031 269.941406 153.160156 C 270.40625 154.113281 270.644531 155.226562 270.644531 156.503906 C 270.644531 157.769531 270.40625 158.878906 269.941406 159.824219 C 269.476562 160.769531 268.828125 161.507812 267.992188 162.035156 C 267.164062 162.5625 266.195312 162.824219 265.085938 162.824219 Z M 265.085938 161.132812 C 265.929688 161.132812 266.621094 160.917969 267.164062 160.488281 C 267.707031 160.054688 268.105469 159.488281 268.367188 158.785156 C 268.628906 158.085938 268.757812 157.324219 268.757812 156.503906 C 268.757812 155.683594 268.628906 154.921875 268.367188 154.214844 C 268.105469 153.503906 267.707031 152.933594 267.164062 152.496094 C 266.621094 152.0625 265.929688 151.84375 265.085938 151.84375 C 264.246094 151.84375 263.554688 152.0625 263.011719 152.496094 C 262.46875 152.933594 262.066406 153.503906 261.808594 154.214844 C 261.546875 154.921875 261.414062 155.683594 261.414062 156.503906 C 261.414062 157.324219 261.546875 158.085938 261.808594 158.785156 C 262.066406 159.488281 262.46875 160.054688 263.011719 160.488281 C 263.554688 160.917969 264.246094 161.132812 265.085938 161.132812 Z M 278.148438 162.824219 C 277.125 162.824219 276.222656 162.566406 275.441406 162.050781 C 274.660156 161.53125 274.046875 160.796875 273.605469 159.847656 C 273.164062 158.894531 272.941406 157.769531 272.941406 156.472656 C 272.941406 155.183594 273.164062 154.066406 273.605469 153.121094 C 274.046875 152.171875 274.660156 151.441406 275.449219 150.925781 C 276.238281 150.410156 277.144531 150.152344 278.179688 150.152344 C 278.976562 150.152344 279.605469 150.285156 280.070312 150.550781 C 280.539062 150.8125 280.894531 151.109375 281.140625 151.445312 C 281.390625 151.773438 281.585938 152.046875 281.722656 152.257812 L 281.882812 152.257812 L 281.882812 146.222656 L 283.765625 146.222656 L 283.765625 162.570312 L 281.945312 162.570312 L 281.945312 160.6875 L 281.722656 160.6875 C 281.585938 160.910156 281.386719 161.191406 281.132812 161.53125 C 280.875 161.867188 280.511719 162.167969 280.039062 162.433594 C 279.566406 162.695312 278.933594 162.824219 278.148438 162.824219 Z M 278.402344 161.132812 C 279.15625 161.132812 279.796875 160.9375 280.316406 160.542969 C 280.839844 160.144531 281.234375 159.59375 281.507812 158.890625 C 281.777344 158.183594 281.914062 157.367188 281.914062 156.441406 C 281.914062 155.527344 281.78125 154.726562 281.515625 154.039062 C 281.25 153.347656 280.855469 152.808594 280.332031 152.425781 C 279.8125 152.039062 279.167969 151.84375 278.402344 151.84375 C 277.605469 151.84375 276.9375 152.046875 276.40625 152.457031 C 275.878906 152.863281 275.484375 153.414062 275.21875 154.109375 C 274.957031 154.800781 274.828125 155.578125 274.828125 156.441406 C 274.828125 157.3125 274.960938 158.105469 275.226562 158.820312 C 275.496094 159.527344 275.894531 160.089844 276.421875 160.511719 C 276.957031 160.925781 277.613281 161.132812 278.402344 161.132812 Z M 292.617188 162.824219 C 291.4375 162.824219 290.417969 162.566406 289.558594 162.042969 C 288.707031 161.515625 288.050781 160.78125 287.589844 159.839844 C 287.132812 158.894531 286.902344 157.792969 286.902344 156.535156 C 286.902344 155.28125 287.132812 154.175781 287.589844 153.214844 C 288.050781 152.253906 288.695312 151.503906 289.519531 150.964844 C 290.351562 150.421875 291.316406 150.152344 292.425781 150.152344 C 293.0625 150.152344 293.695312 150.257812 294.316406 150.46875 C 294.9375 150.683594 295.507812 151.027344 296.015625 151.507812 C 296.527344 151.980469 296.933594 152.609375 297.238281 153.390625 C 297.539062 154.175781 297.691406 155.136719 297.691406 156.28125 L 297.691406 157.078125 L 288.242188 157.078125 L 288.242188 155.449219 L 295.777344 155.449219 C 295.777344 154.757812 295.636719 154.140625 295.363281 153.597656 C 295.089844 153.054688 294.703125 152.628906 294.199219 152.3125 C 293.695312 152 293.105469 151.84375 292.425781 151.84375 C 291.675781 151.84375 291.027344 152.027344 290.476562 152.402344 C 289.933594 152.769531 289.515625 153.25 289.226562 153.839844 C 288.933594 154.429688 288.785156 155.0625 288.785156 155.738281 L 288.785156 156.824219 C 288.785156 157.75 288.945312 158.535156 289.265625 159.175781 C 289.589844 159.816406 290.039062 160.304688 290.613281 160.636719 C 291.1875 160.96875 291.855469 161.132812 292.617188 161.132812 C 293.113281 161.132812 293.558594 161.0625 293.957031 160.925781 C 294.363281 160.78125 294.710938 160.570312 295.003906 160.289062 C 295.296875 160 295.523438 159.644531 295.679688 159.21875 L 297.5 159.726562 C 297.308594 160.34375 296.988281 160.890625 296.535156 161.355469 C 296.082031 161.820312 295.523438 162.183594 294.859375 162.441406 C 294.195312 162.699219 293.445312 162.824219 292.617188 162.824219 Z M 303.367188 160.335938 L 303.238281 161.199219 C 303.148438 161.804688 303.011719 162.453125 302.824219 163.144531 C 302.644531 163.835938 302.453125 164.488281 302.257812 165.101562 C 302.0625 165.710938 301.898438 166.199219 301.769531 166.5625 L 300.335938 166.5625 C 300.402344 166.21875 300.492188 165.769531 300.605469 165.210938 C 300.71875 164.652344 300.828125 164.027344 300.941406 163.335938 C 301.058594 162.648438 301.152344 161.949219 301.226562 161.230469 L 301.324219 160.335938 Z M 326.585938 151.332031 L 324.609375 151.332031 C 324.492188 150.761719 324.285156 150.261719 323.992188 149.832031 C 323.707031 149.402344 323.355469 149.039062 322.9375 148.746094 C 322.53125 148.449219 322.074219 148.226562 321.574219 148.074219 C 321.074219 147.925781 320.554688 147.851562 320.011719 147.851562 C 319.019531 147.851562 318.125 148.101562 317.320312 148.601562 C 316.523438 149.101562 315.886719 149.839844 315.414062 150.8125 C 314.945312 151.789062 314.710938 152.980469 314.710938 154.398438 C 314.710938 155.8125 314.945312 157.007812 315.414062 157.980469 C 315.886719 158.953125 316.523438 159.691406 317.320312 160.191406 C 318.125 160.691406 319.019531 160.941406 320.011719 160.941406 C 320.554688 160.941406 321.074219 160.867188 321.574219 160.71875 C 322.074219 160.570312 322.53125 160.347656 322.9375 160.054688 C 323.355469 159.757812 323.707031 159.394531 323.992188 158.960938 C 324.285156 158.527344 324.492188 158.027344 324.609375 157.460938 L 326.585938 157.460938 C 326.4375 158.296875 326.167969 159.046875 325.773438 159.703125 C 325.378906 160.363281 324.890625 160.925781 324.304688 161.386719 C 323.71875 161.847656 323.0625 162.195312 322.332031 162.433594 C 321.609375 162.671875 320.835938 162.792969 320.011719 162.792969 C 318.617188 162.792969 317.375 162.453125 316.292969 161.773438 C 315.207031 161.089844 314.351562 160.121094 313.730469 158.867188 C 313.105469 157.609375 312.796875 156.121094 312.796875 154.398438 C 312.796875 152.671875 313.105469 151.183594 313.730469 149.925781 C 314.351562 148.671875 315.207031 147.703125 316.292969 147.023438 C 317.375 146.339844 318.617188 146 320.011719 146 C 320.835938 146 321.609375 146.121094 322.332031 146.359375 C 323.0625 146.601562 323.71875 146.949219 324.304688 147.414062 C 324.890625 147.871094 325.378906 148.429688 325.773438 149.089844 C 326.167969 149.746094 326.4375 150.492188 326.585938 151.332031 Z M 331.414062 155.195312 L 331.414062 162.570312 L 329.53125 162.570312 L 329.53125 146.222656 L 331.414062 146.222656 L 331.414062 152.226562 L 331.574219 152.226562 C 331.859375 151.59375 332.292969 151.089844 332.867188 150.71875 C 333.445312 150.339844 334.21875 150.152344 335.179688 150.152344 C 336.015625 150.152344 336.746094 150.320312 337.375 150.652344 C 338.003906 150.984375 338.492188 151.492188 338.835938 152.179688 C 339.1875 152.859375 339.363281 153.726562 339.363281 154.78125 L 339.363281 162.570312 L 337.480469 162.570312 L 337.480469 154.90625 C 337.480469 153.933594 337.226562 153.179688 336.722656 152.648438 C 336.21875 152.113281 335.527344 151.84375 334.636719 151.84375 C 334.019531 151.84375 333.46875 151.972656 332.976562 152.234375 C 332.492188 152.496094 332.109375 152.875 331.828125 153.375 C 331.550781 153.875 331.414062 154.484375 331.414062 155.195312 Z M 346.414062 162.859375 C 345.640625 162.859375 344.933594 162.710938 344.300781 162.417969 C 343.667969 162.121094 343.164062 161.691406 342.792969 161.132812 C 342.417969 160.570312 342.234375 159.886719 342.234375 159.089844 C 342.234375 158.386719 342.371094 157.820312 342.648438 157.382812 C 342.925781 156.941406 343.296875 156.59375 343.757812 156.34375 C 344.222656 156.09375 344.730469 155.910156 345.289062 155.785156 C 345.855469 155.65625 346.421875 155.558594 346.992188 155.484375 C 347.734375 155.386719 348.339844 155.316406 348.804688 155.265625 C 349.269531 155.214844 349.609375 155.125 349.824219 155.003906 C 350.042969 154.882812 350.152344 154.667969 350.152344 154.363281 L 350.152344 154.300781 C 350.152344 153.515625 349.9375 152.902344 349.503906 152.464844 C 349.078125 152.027344 348.433594 151.8125 347.566406 151.8125 C 346.667969 151.8125 345.960938 152.007812 345.449219 152.402344 C 344.9375 152.796875 344.582031 153.214844 344.371094 153.664062 L 342.585938 153.023438 C 342.90625 152.28125 343.332031 151.699219 343.863281 151.285156 C 344.398438 150.863281 344.984375 150.570312 345.617188 150.40625 C 346.257812 150.238281 346.882812 150.152344 347.5 150.152344 C 347.894531 150.152344 348.347656 150.199219 348.859375 150.292969 C 349.375 150.386719 349.871094 150.574219 350.351562 150.859375 C 350.835938 151.148438 351.238281 151.582031 351.554688 152.164062 C 351.875 152.742188 352.035156 153.519531 352.035156 154.492188 L 352.035156 162.570312 L 350.152344 162.570312 L 350.152344 160.910156 L 350.054688 160.910156 C 349.929688 161.175781 349.714844 161.460938 349.417969 161.765625 C 349.117188 162.066406 348.722656 162.324219 348.226562 162.539062 C 347.734375 162.75 347.128906 162.859375 346.414062 162.859375 Z M 346.703125 161.164062 C 347.449219 161.164062 348.074219 161.019531 348.585938 160.726562 C 349.101562 160.433594 349.492188 160.054688 349.753906 159.59375 C 350.019531 159.128906 350.152344 158.644531 350.152344 158.132812 L 350.152344 156.410156 C 350.070312 156.503906 349.894531 156.59375 349.625 156.671875 C 349.359375 156.746094 349.050781 156.8125 348.699219 156.871094 C 348.351562 156.925781 348.015625 156.972656 347.683594 157.015625 C 347.359375 157.050781 347.097656 157.085938 346.894531 157.109375 C 346.40625 157.175781 345.949219 157.277344 345.523438 157.421875 C 345.101562 157.558594 344.761719 157.769531 344.5 158.050781 C 344.246094 158.328125 344.117188 158.707031 344.117188 159.1875 C 344.117188 159.839844 344.359375 160.335938 344.84375 160.671875 C 345.332031 161 345.953125 161.164062 346.703125 161.164062 Z M 360.804688 150.308594 L 360.804688 151.90625 L 354.453125 151.90625 L 354.453125 150.308594 Z M 356.304688 147.375 L 358.1875 147.375 L 358.1875 159.058594 C 358.1875 159.589844 358.261719 159.988281 358.417969 160.253906 C 358.578125 160.515625 358.78125 160.691406 359.023438 160.78125 C 359.273438 160.867188 359.539062 160.910156 359.816406 160.910156 C 360.023438 160.910156 360.191406 160.898438 360.324219 160.878906 C 360.457031 160.851562 360.566406 160.832031 360.644531 160.8125 L 361.027344 162.507812 C 360.902344 162.554688 360.722656 162.601562 360.492188 162.648438 C 360.265625 162.703125 359.972656 162.730469 359.625 162.730469 C 359.089844 162.730469 358.570312 162.613281 358.058594 162.386719 C 357.554688 162.15625 357.132812 161.808594 356.796875 161.339844 C 356.46875 160.871094 356.304688 160.28125 356.304688 159.570312 Z M 373.566406 162.859375 C 372.789062 162.859375 372.085938 162.710938 371.449219 162.417969 C 370.816406 162.121094 370.316406 161.691406 369.941406 161.132812 C 369.570312 160.570312 369.382812 159.886719 369.382812 159.089844 C 369.382812 158.386719 369.523438 157.820312 369.800781 157.382812 C 370.074219 156.941406 370.445312 156.59375 370.910156 156.34375 C 371.371094 156.09375 371.882812 155.910156 372.441406 155.785156 C 373.003906 155.65625 373.570312 155.558594 374.140625 155.484375 C 374.886719 155.386719 375.488281 155.316406 375.953125 155.265625 C 376.421875 155.214844 376.761719 155.125 376.972656 155.003906 C 377.191406 154.882812 377.300781 154.667969 377.300781 154.363281 L 377.300781 154.300781 C 377.300781 153.515625 377.085938 152.902344 376.65625 152.464844 C 376.230469 152.027344 375.582031 151.8125 374.714844 151.8125 C 373.816406 151.8125 373.109375 152.007812 372.601562 152.402344 C 372.089844 152.796875 371.730469 153.214844 371.523438 153.664062 L 369.734375 153.023438 C 370.054688 152.28125 370.480469 151.699219 371.011719 151.285156 C 371.550781 150.863281 372.136719 150.570312 372.769531 150.40625 C 373.40625 150.238281 374.035156 150.152344 374.652344 150.152344 C 375.046875 150.152344 375.496094 150.199219 376.007812 150.292969 C 376.523438 150.386719 377.023438 150.574219 377.5 150.859375 C 377.984375 151.148438 378.386719 151.582031 378.707031 152.164062 C 379.023438 152.742188 379.183594 153.519531 379.183594 154.492188 L 379.183594 162.570312 L 377.300781 162.570312 L 377.300781 160.910156 L 377.207031 160.910156 C 377.078125 161.175781 376.863281 161.460938 376.566406 161.765625 C 376.269531 162.066406 375.871094 162.324219 375.378906 162.539062 C 374.882812 162.75 374.277344 162.859375 373.566406 162.859375 Z M 373.855469 161.164062 C 374.597656 161.164062 375.226562 161.019531 375.738281 160.726562 C 376.253906 160.433594 376.640625 160.054688 376.902344 159.59375 C 377.167969 159.128906 377.300781 158.644531 377.300781 158.132812 L 377.300781 156.410156 C 377.222656 156.503906 377.046875 156.59375 376.773438 156.671875 C 376.507812 156.746094 376.199219 156.8125 375.847656 156.871094 C 375.503906 156.925781 375.164062 156.972656 374.835938 157.015625 C 374.511719 157.050781 374.246094 157.085938 374.046875 157.109375 C 373.554688 157.175781 373.097656 157.277344 372.671875 157.421875 C 372.25 157.558594 371.910156 157.769531 371.652344 158.050781 C 371.394531 158.328125 371.265625 158.707031 371.265625 159.1875 C 371.265625 159.839844 371.507812 160.335938 371.992188 160.671875 C 372.484375 161 373.105469 161.164062 373.855469 161.164062 Z M 384.507812 155.195312 L 384.507812 162.570312 L 382.621094 162.570312 L 382.621094 150.308594 L 384.441406 150.308594 L 384.441406 152.226562 L 384.601562 152.226562 C 384.890625 151.605469 385.324219 151.105469 385.910156 150.726562 C 386.496094 150.34375 387.25 150.152344 388.175781 150.152344 C 389.007812 150.152344 389.734375 150.320312 390.355469 150.660156 C 390.980469 150.996094 391.464844 151.507812 391.808594 152.195312 C 392.15625 152.875 392.328125 153.738281 392.328125 154.78125 L 392.328125 162.570312 L 390.445312 162.570312 L 390.445312 154.90625 C 390.445312 153.945312 390.195312 153.195312 389.695312 152.65625 C 389.195312 152.113281 388.507812 151.84375 387.636719 151.84375 C 387.035156 151.84375 386.496094 151.972656 386.023438 152.234375 C 385.554688 152.496094 385.183594 152.875 384.914062 153.375 C 384.640625 153.875 384.507812 154.484375 384.507812 155.195312 Z M 400.398438 162.824219 C 399.378906 162.824219 398.476562 162.566406 397.695312 162.050781 C 396.910156 161.53125 396.300781 160.796875 395.859375 159.847656 C 395.417969 158.894531 395.195312 157.769531 395.195312 156.472656 C 395.195312 155.183594 395.417969 154.066406 395.859375 153.121094 C 396.300781 152.171875 396.914062 151.441406 397.699219 150.925781 C 398.488281 150.410156 399.398438 150.152344 400.429688 150.152344 C 401.230469 150.152344 401.859375 150.285156 402.324219 150.550781 C 402.792969 150.8125 403.148438 151.109375 403.390625 151.445312 C 403.640625 151.773438 403.835938 152.046875 403.976562 152.257812 L 404.132812 152.257812 L 404.132812 146.222656 L 406.019531 146.222656 L 406.019531 162.570312 L 404.199219 162.570312 L 404.199219 160.6875 L 403.976562 160.6875 C 403.835938 160.910156 403.640625 161.191406 403.382812 161.53125 C 403.128906 161.867188 402.765625 162.167969 402.289062 162.433594 C 401.816406 162.695312 401.1875 162.824219 400.398438 162.824219 Z M 400.65625 161.132812 C 401.410156 161.132812 402.046875 160.9375 402.570312 160.542969 C 403.089844 160.144531 403.488281 159.59375 403.757812 158.890625 C 404.03125 158.183594 404.167969 157.367188 404.167969 156.441406 C 404.167969 155.527344 404.03125 154.726562 403.765625 154.039062 C 403.5 153.347656 403.105469 152.808594 402.585938 152.425781 C 402.0625 152.039062 401.421875 151.84375 400.65625 151.84375 C 399.855469 151.84375 399.191406 152.046875 398.660156 152.457031 C 398.132812 152.863281 397.738281 153.414062 397.46875 154.109375 C 397.207031 154.800781 397.078125 155.578125 397.078125 156.441406 C 397.078125 157.3125 397.210938 158.105469 397.476562 158.820312 C 397.75 159.527344 398.148438 160.089844 398.675781 160.511719 C 399.207031 160.925781 399.867188 161.132812 400.65625 161.132812 Z M 429.457031 151.332031 L 427.480469 151.332031 C 427.363281 150.761719 427.15625 150.261719 426.863281 149.832031 C 426.578125 149.402344 426.226562 149.039062 425.8125 148.746094 C 425.402344 148.449219 424.945312 148.226562 424.445312 148.074219 C 423.945312 147.925781 423.425781 147.851562 422.882812 147.851562 C 421.894531 147.851562 420.996094 148.101562 420.191406 148.601562 C 419.394531 149.101562 418.757812 149.839844 418.285156 150.8125 C 417.816406 151.789062 417.582031 152.980469 417.582031 154.398438 C 417.582031 155.8125 417.816406 157.007812 418.285156 157.980469 C 418.757812 158.953125 419.394531 159.691406 420.191406 160.191406 C 420.996094 160.691406 421.894531 160.941406 422.882812 160.941406 C 423.425781 160.941406 423.945312 160.867188 424.445312 160.71875 C 424.945312 160.570312 425.402344 160.347656 425.8125 160.054688 C 426.226562 159.757812 426.578125 159.394531 426.863281 158.960938 C 427.15625 158.527344 427.363281 158.027344 427.480469 157.460938 L 429.457031 157.460938 C 429.308594 158.296875 429.039062 159.046875 428.644531 159.703125 C 428.25 160.363281 427.761719 160.925781 427.175781 161.386719 C 426.589844 161.847656 425.933594 162.195312 425.203125 162.433594 C 424.480469 162.671875 423.707031 162.792969 422.882812 162.792969 C 421.488281 162.792969 420.25 162.453125 419.164062 161.773438 C 418.078125 161.089844 417.222656 160.121094 416.601562 158.867188 C 415.980469 157.609375 415.667969 156.121094 415.667969 154.398438 C 415.667969 152.671875 415.980469 151.183594 416.601562 149.925781 C 417.222656 148.671875 418.078125 147.703125 419.164062 147.023438 C 420.25 146.339844 421.488281 146 422.882812 146 C 423.707031 146 424.480469 146.121094 425.203125 146.359375 C 425.933594 146.601562 426.589844 146.949219 427.175781 147.414062 C 427.761719 147.871094 428.25 148.429688 428.644531 149.089844 C 429.039062 149.746094 429.308594 150.492188 429.457031 151.332031 Z M 437.382812 162.824219 C 436.273438 162.824219 435.304688 162.5625 434.46875 162.035156 C 433.640625 161.507812 432.988281 160.769531 432.523438 159.824219 C 432.058594 158.878906 431.828125 157.769531 431.828125 156.503906 C 431.828125 155.226562 432.058594 154.113281 432.523438 153.160156 C 432.988281 152.207031 433.640625 151.46875 434.46875 150.941406 C 435.304688 150.414062 436.273438 150.152344 437.382812 150.152344 C 438.488281 150.152344 439.457031 150.414062 440.285156 150.941406 C 441.121094 151.46875 441.773438 152.207031 442.234375 153.160156 C 442.703125 154.113281 442.9375 155.226562 442.9375 156.503906 C 442.9375 157.769531 442.703125 158.878906 442.234375 159.824219 C 441.773438 160.769531 441.121094 161.507812 440.285156 162.035156 C 439.457031 162.5625 438.488281 162.824219 437.382812 162.824219 Z M 437.382812 161.132812 C 438.222656 161.132812 438.914062 160.917969 439.457031 160.488281 C 440 160.054688 440.402344 159.488281 440.664062 158.785156 C 440.921875 158.085938 441.054688 157.324219 441.054688 156.503906 C 441.054688 155.683594 440.921875 154.921875 440.664062 154.214844 C 440.402344 153.503906 440 152.933594 439.457031 152.496094 C 438.914062 152.0625 438.222656 151.84375 437.382812 151.84375 C 436.542969 151.84375 435.851562 152.0625 435.308594 152.496094 C 434.765625 152.933594 434.363281 153.503906 434.101562 154.214844 C 433.839844 154.921875 433.710938 155.683594 433.710938 156.503906 C 433.710938 157.324219 433.839844 158.085938 434.101562 158.785156 C 434.363281 159.488281 434.765625 160.054688 435.308594 160.488281 C 435.851562 160.917969 436.542969 161.132812 437.382812 161.132812 Z M 447.695312 146.222656 L 447.695312 162.570312 L 445.8125 162.570312 L 445.8125 146.222656 Z M 453.03125 146.222656 L 453.03125 162.570312 L 451.144531 162.570312 L 451.144531 146.222656 Z M 460.085938 162.859375 C 459.308594 162.859375 458.605469 162.710938 457.972656 162.417969 C 457.339844 162.121094 456.835938 161.691406 456.464844 161.132812 C 456.089844 160.570312 455.902344 159.886719 455.902344 159.089844 C 455.902344 158.386719 456.042969 157.820312 456.320312 157.382812 C 456.597656 156.941406 456.964844 156.59375 457.429688 156.34375 C 457.890625 156.09375 458.402344 155.910156 458.960938 155.785156 C 459.527344 155.65625 460.09375 155.558594 460.660156 155.484375 C 461.40625 155.386719 462.011719 155.316406 462.472656 155.265625 C 462.941406 155.214844 463.28125 155.125 463.496094 155.003906 C 463.710938 154.882812 463.820312 154.667969 463.820312 154.363281 L 463.820312 154.300781 C 463.820312 153.515625 463.605469 152.902344 463.175781 152.464844 C 462.75 152.027344 462.105469 151.8125 461.234375 151.8125 C 460.335938 151.8125 459.632812 152.007812 459.121094 152.402344 C 458.609375 152.796875 458.25 153.214844 458.042969 153.664062 L 456.253906 153.023438 C 456.574219 152.28125 457 151.699219 457.53125 151.285156 C 458.070312 150.863281 458.65625 150.570312 459.289062 150.40625 C 459.925781 150.238281 460.554688 150.152344 461.171875 150.152344 C 461.566406 150.152344 462.019531 150.199219 462.527344 150.292969 C 463.046875 150.386719 463.542969 150.574219 464.019531 150.859375 C 464.503906 151.148438 464.90625 151.582031 465.226562 152.164062 C 465.546875 152.742188 465.707031 153.519531 465.707031 154.492188 L 465.707031 162.570312 L 463.820312 162.570312 L 463.820312 160.910156 L 463.726562 160.910156 C 463.597656 161.175781 463.386719 161.460938 463.085938 161.765625 C 462.789062 162.066406 462.394531 162.324219 461.898438 162.539062 C 461.402344 162.75 460.800781 162.859375 460.085938 162.859375 Z M 460.375 161.164062 C 461.121094 161.164062 461.746094 161.019531 462.257812 160.726562 C 462.773438 160.433594 463.164062 160.054688 463.421875 159.59375 C 463.6875 159.128906 463.820312 158.644531 463.820312 158.132812 L 463.820312 156.410156 C 463.742188 156.503906 463.566406 156.59375 463.292969 156.671875 C 463.027344 156.746094 462.71875 156.8125 462.371094 156.871094 C 462.023438 156.925781 461.683594 156.972656 461.355469 157.015625 C 461.03125 157.050781 460.769531 157.085938 460.566406 157.109375 C 460.078125 157.175781 459.617188 157.277344 459.191406 157.421875 C 458.773438 157.558594 458.433594 157.769531 458.171875 158.050781 C 457.914062 158.328125 457.789062 158.707031 457.789062 159.1875 C 457.789062 159.839844 458.03125 160.335938 458.515625 160.671875 C 459.003906 161 459.625 161.164062 460.375 161.164062 Z M 469.398438 162.570312 L 469.398438 146.222656 L 471.28125 146.222656 L 471.28125 152.257812 L 471.441406 152.257812 C 471.582031 152.046875 471.773438 151.773438 472.015625 151.445312 C 472.265625 151.109375 472.625 150.8125 473.085938 150.550781 C 473.554688 150.285156 474.1875 150.152344 474.984375 150.152344 C 476.019531 150.152344 476.925781 150.410156 477.714844 150.925781 C 478.503906 151.441406 479.117188 152.171875 479.558594 153.121094 C 480 154.066406 480.222656 155.183594 480.222656 156.472656 C 480.222656 157.769531 480 158.894531 479.558594 159.847656 C 479.117188 160.796875 478.503906 161.53125 477.722656 162.050781 C 476.941406 162.566406 476.039062 162.824219 475.019531 162.824219 C 474.230469 162.824219 473.597656 162.695312 473.125 162.433594 C 472.652344 162.167969 472.289062 161.867188 472.03125 161.53125 C 471.777344 161.191406 471.582031 160.910156 471.441406 160.6875 L 471.21875 160.6875 L 471.21875 162.570312 Z M 471.25 156.441406 C 471.25 157.367188 471.386719 158.183594 471.65625 158.890625 C 471.929688 159.59375 472.324219 160.144531 472.847656 160.542969 C 473.367188 160.9375 474.007812 161.132812 474.761719 161.132812 C 475.550781 161.132812 476.207031 160.925781 476.734375 160.511719 C 477.265625 160.089844 477.664062 159.527344 477.929688 158.820312 C 478.203125 158.105469 478.335938 157.3125 478.335938 156.441406 C 478.335938 155.578125 478.203125 154.800781 477.9375 154.109375 C 477.679688 153.414062 477.28125 152.863281 476.75 152.457031 C 476.222656 152.046875 475.558594 151.84375 474.761719 151.84375 C 473.996094 151.84375 473.351562 152.039062 472.832031 152.425781 C 472.308594 152.808594 471.914062 153.347656 471.648438 154.039062 C 471.382812 154.726562 471.25 155.527344 471.25 156.441406 Z M 488.082031 162.824219 C 486.976562 162.824219 486.003906 162.5625 485.167969 162.035156 C 484.339844 161.507812 483.691406 160.769531 483.222656 159.824219 C 482.757812 158.878906 482.527344 157.769531 482.527344 156.503906 C 482.527344 155.226562 482.757812 154.113281 483.222656 153.160156 C 483.691406 152.207031 484.339844 151.46875 485.167969 150.941406 C 486.003906 150.414062 486.976562 150.152344 488.082031 150.152344 C 489.191406 150.152344 490.15625 150.414062 490.988281 150.941406 C 491.824219 151.46875 492.472656 152.207031 492.9375 153.160156 C 493.402344 154.113281 493.636719 155.226562 493.636719 156.503906 C 493.636719 157.769531 493.402344 158.878906 492.9375 159.824219 C 492.472656 160.769531 491.824219 161.507812 490.988281 162.035156 C 490.15625 162.5625 489.191406 162.824219 488.082031 162.824219 Z M 488.082031 161.132812 C 488.921875 161.132812 489.617188 160.917969 490.15625 160.488281 C 490.699219 160.054688 491.101562 159.488281 491.363281 158.785156 C 491.625 158.085938 491.753906 157.324219 491.753906 156.503906 C 491.753906 155.683594 491.625 154.921875 491.363281 154.214844 C 491.101562 153.503906 490.699219 152.933594 490.15625 152.496094 C 489.617188 152.0625 488.921875 151.84375 488.082031 151.84375 C 487.242188 151.84375 486.550781 152.0625 486.007812 152.496094 C 485.464844 152.933594 485.0625 153.503906 484.800781 154.214844 C 484.542969 154.921875 484.410156 155.683594 484.410156 156.503906 C 484.410156 157.324219 484.542969 158.085938 484.800781 158.785156 C 485.0625 159.488281 485.464844 160.054688 486.007812 160.488281 C 486.550781 160.917969 487.242188 161.132812 488.082031 161.132812 Z M 496.511719 162.570312 L 496.511719 150.308594 L 498.332031 150.308594 L 498.332031 152.164062 L 498.460938 152.164062 C 498.683594 151.554688 499.085938 151.0625 499.671875 150.6875 C 500.257812 150.308594 500.917969 150.121094 501.652344 150.121094 C 501.789062 150.121094 501.964844 150.121094 502.171875 150.128906 C 502.378906 150.132812 502.535156 150.140625 502.644531 150.152344 L 502.644531 152.066406 C 502.578125 152.050781 502.433594 152.027344 502.203125 151.996094 C 501.980469 151.957031 501.742188 151.9375 501.492188 151.9375 C 500.898438 151.9375 500.363281 152.0625 499.898438 152.3125 C 499.433594 152.558594 499.066406 152.898438 498.796875 153.335938 C 498.53125 153.765625 498.394531 154.257812 498.394531 154.8125 L 498.394531 162.570312 Z M 508.484375 162.859375 C 507.707031 162.859375 507 162.710938 506.367188 162.417969 C 505.734375 162.121094 505.230469 161.691406 504.859375 161.132812 C 504.488281 160.570312 504.300781 159.886719 504.300781 159.089844 C 504.300781 158.386719 504.4375 157.820312 504.714844 157.382812 C 504.992188 156.941406 505.363281 156.59375 505.824219 156.34375 C 506.289062 156.09375 506.800781 155.910156 507.355469 155.785156 C 507.921875 155.65625 508.488281 155.558594 509.058594 155.484375 C 509.800781 155.386719 510.40625 155.316406 510.871094 155.265625 C 511.335938 155.214844 511.675781 155.125 511.890625 155.003906 C 512.109375 154.882812 512.21875 154.667969 512.21875 154.363281 L 512.21875 154.300781 C 512.21875 153.515625 512.003906 152.902344 511.570312 152.464844 C 511.144531 152.027344 510.5 151.8125 509.632812 151.8125 C 508.734375 151.8125 508.027344 152.007812 507.515625 152.402344 C 507.007812 152.796875 506.648438 153.214844 506.441406 153.664062 L 504.652344 153.023438 C 504.972656 152.28125 505.398438 151.699219 505.929688 151.285156 C 506.464844 150.863281 507.050781 150.570312 507.683594 150.40625 C 508.324219 150.238281 508.949219 150.152344 509.566406 150.152344 C 509.960938 150.152344 510.414062 150.199219 510.925781 150.292969 C 511.441406 150.386719 511.9375 150.574219 512.417969 150.859375 C 512.902344 151.148438 513.304688 151.582031 513.621094 152.164062 C 513.941406 152.742188 514.101562 153.519531 514.101562 154.492188 L 514.101562 162.570312 L 512.21875 162.570312 L 512.21875 160.910156 L 512.121094 160.910156 C 511.996094 161.175781 511.78125 161.460938 511.484375 161.765625 C 511.183594 162.066406 510.789062 162.324219 510.292969 162.539062 C 509.800781 162.75 509.195312 162.859375 508.484375 162.859375 Z M 508.769531 161.164062 C 509.515625 161.164062 510.144531 161.019531 510.652344 160.726562 C 511.167969 160.433594 511.558594 160.054688 511.820312 159.59375 C 512.085938 159.128906 512.21875 158.644531 512.21875 158.132812 L 512.21875 156.410156 C 512.136719 156.503906 511.960938 156.59375 511.691406 156.671875 C 511.425781 156.746094 511.117188 156.8125 510.765625 156.871094 C 510.417969 156.925781 510.082031 156.972656 509.75 157.015625 C 509.425781 157.050781 509.164062 157.085938 508.960938 157.109375 C 508.472656 157.175781 508.015625 157.277344 507.589844 157.421875 C 507.167969 157.558594 506.828125 157.769531 506.566406 158.050781 C 506.3125 158.328125 506.183594 158.707031 506.183594 159.1875 C 506.183594 159.839844 506.425781 160.335938 506.910156 160.671875 C 507.398438 161 508.019531 161.164062 508.769531 161.164062 Z M 522.871094 150.308594 L 522.871094 151.90625 L 516.519531 151.90625 L 516.519531 150.308594 Z M 518.371094 147.375 L 520.253906 147.375 L 520.253906 159.058594 C 520.253906 159.589844 520.328125 159.988281 520.484375 160.253906 C 520.644531 160.515625 520.847656 160.691406 521.089844 160.78125 C 521.339844 160.867188 521.605469 160.910156 521.882812 160.910156 C 522.089844 160.910156 522.257812 160.898438 522.390625 160.878906 C 522.523438 160.851562 522.632812 160.832031 522.710938 160.8125 L 523.09375 162.507812 C 522.96875 162.554688 522.789062 162.601562 522.558594 162.648438 C 522.332031 162.703125 522.039062 162.730469 521.691406 162.730469 C 521.15625 162.730469 520.636719 162.613281 520.125 162.386719 C 519.621094 162.15625 519.199219 161.808594 518.863281 161.339844 C 518.535156 160.871094 518.371094 160.28125 518.371094 159.570312 Z M 530.710938 162.824219 C 529.53125 162.824219 528.511719 162.566406 527.65625 162.042969 C 526.804688 161.515625 526.148438 160.78125 525.683594 159.839844 C 525.226562 158.894531 524.996094 157.792969 524.996094 156.535156 C 524.996094 155.28125 525.226562 154.175781 525.683594 153.214844 C 526.148438 152.253906 526.789062 151.503906 527.617188 150.964844 C 528.445312 150.421875 529.414062 150.152344 530.519531 150.152344 C 531.160156 150.152344 531.789062 150.257812 532.414062 150.46875 C 533.035156 150.683594 533.601562 151.027344 534.113281 151.507812 C 534.625 151.980469 535.03125 152.609375 535.332031 153.390625 C 535.636719 154.175781 535.789062 155.136719 535.789062 156.28125 L 535.789062 157.078125 L 526.339844 157.078125 L 526.339844 155.449219 L 533.875 155.449219 C 533.875 154.757812 533.734375 154.140625 533.457031 153.597656 C 533.1875 153.054688 532.796875 152.628906 532.292969 152.3125 C 531.792969 152 531.203125 151.84375 530.519531 151.84375 C 529.769531 151.84375 529.121094 152.027344 528.574219 152.402344 C 528.03125 152.769531 527.613281 153.25 527.320312 153.839844 C 527.027344 154.429688 526.882812 155.0625 526.882812 155.738281 L 526.882812 156.824219 C 526.882812 157.75 527.039062 158.535156 527.359375 159.175781 C 527.683594 159.816406 528.132812 160.304688 528.710938 160.636719 C 529.285156 160.96875 529.953125 161.132812 530.710938 161.132812 C 531.207031 161.132812 531.65625 161.0625 532.054688 160.925781 C 532.457031 160.78125 532.804688 160.570312 533.097656 160.289062 C 533.390625 160 533.617188 159.644531 533.777344 159.21875 L 535.597656 159.726562 C 535.40625 160.34375 535.082031 160.890625 534.632812 161.355469 C 534.179688 161.820312 533.621094 162.183594 532.953125 162.441406 C 532.289062 162.699219 531.542969 162.824219 530.710938 162.824219 Z M 540.027344 162.699219 C 539.632812 162.699219 539.296875 162.554688 539.011719 162.273438 C 538.730469 161.992188 538.589844 161.65625 538.589844 161.261719 C 538.589844 160.867188 538.730469 160.527344 539.011719 160.246094 C 539.296875 159.964844 539.632812 159.824219 540.027344 159.824219 C 540.421875 159.824219 540.757812 159.964844 541.039062 160.246094 C 541.324219 160.527344 541.464844 160.867188 541.464844 161.261719 C 541.464844 161.523438 541.398438 161.761719 541.265625 161.980469 C 541.136719 162.199219 540.960938 162.371094 540.746094 162.507812 C 540.53125 162.632812 540.292969 162.699219 540.027344 162.699219 Z M 553.398438 146.222656 L 553.398438 162.570312 L 551.417969 162.570312 L 551.417969 146.222656 Z M 562.445312 150.308594 L 562.445312 151.90625 L 556.089844 151.90625 L 556.089844 150.308594 Z M 557.941406 147.375 L 559.824219 147.375 L 559.824219 159.058594 C 559.824219 159.589844 559.902344 159.988281 560.058594 160.253906 C 560.21875 160.515625 560.417969 160.691406 560.664062 160.78125 C 560.914062 160.867188 561.175781 160.910156 561.453125 160.910156 C 561.660156 160.910156 561.832031 160.898438 561.964844 160.878906 C 562.097656 160.851562 562.203125 160.832031 562.285156 160.8125 L 562.667969 162.507812 C 562.539062 162.554688 562.359375 162.601562 562.132812 162.648438 C 561.902344 162.703125 561.613281 162.730469 561.261719 162.730469 C 560.730469 162.730469 560.207031 162.613281 559.699219 162.386719 C 559.191406 162.15625 558.773438 161.808594 558.4375 161.339844 C 558.109375 160.871094 557.941406 160.28125 557.941406 159.570312 Z M 566.90625 146.222656 L 566.90625 151.84375 L 565.148438 151.84375 L 565.148438 146.222656 Z M 578.941406 153.054688 L 577.25 153.535156 C 577.144531 153.253906 576.988281 152.980469 576.78125 152.714844 C 576.578125 152.441406 576.300781 152.21875 575.949219 152.042969 C 575.597656 151.867188 575.148438 151.78125 574.601562 151.78125 C 573.851562 151.78125 573.226562 151.953125 572.726562 152.296875 C 572.230469 152.640625 571.984375 153.070312 571.984375 153.597656 C 571.984375 154.066406 572.152344 154.4375 572.492188 154.707031 C 572.835938 154.980469 573.367188 155.207031 574.089844 155.386719 L 575.910156 155.835938 C 577.007812 156.101562 577.824219 156.507812 578.359375 157.054688 C 578.898438 157.597656 579.167969 158.296875 579.167969 159.152344 C 579.167969 159.855469 578.964844 160.484375 578.558594 161.039062 C 578.160156 161.589844 577.601562 162.027344 576.882812 162.347656 C 576.164062 162.664062 575.332031 162.824219 574.378906 162.824219 C 573.128906 162.824219 572.09375 162.554688 571.273438 162.011719 C 570.453125 161.46875 569.933594 160.675781 569.714844 159.632812 L 571.503906 159.1875 C 571.675781 159.847656 571.996094 160.339844 572.46875 160.671875 C 572.949219 161 573.574219 161.164062 574.347656 161.164062 C 575.222656 161.164062 575.921875 160.980469 576.4375 160.605469 C 576.957031 160.230469 577.21875 159.777344 577.21875 159.25 C 577.21875 158.824219 577.070312 158.46875 576.773438 158.179688 C 576.472656 157.886719 576.015625 157.667969 575.398438 157.527344 L 573.355469 157.046875 C 572.234375 156.78125 571.410156 156.367188 570.882812 155.808594 C 570.359375 155.246094 570.097656 154.542969 570.097656 153.695312 C 570.097656 153.003906 570.292969 152.390625 570.683594 151.859375 C 571.078125 151.328125 571.609375 150.910156 572.285156 150.605469 C 572.96875 150.304688 573.738281 150.152344 574.601562 150.152344 C 575.8125 150.152344 576.765625 150.417969 577.457031 150.949219 C 578.15625 151.480469 578.652344 152.183594 578.941406 153.054688 Z M 589.25 162.570312 L 587.171875 162.570312 L 593.175781 146.222656 L 595.21875 146.222656 L 601.222656 162.570312 L 599.144531 162.570312 L 594.261719 148.8125 L 594.132812 148.8125 Z M 590.015625 156.183594 L 598.378906 156.183594 L 598.378906 157.941406 L 590.015625 157.941406 Z M 605.394531 146.222656 L 605.394531 162.570312 L 603.511719 162.570312 L 603.511719 146.222656 Z M 610.726562 146.222656 L 610.726562 162.570312 L 608.84375 162.570312 L 608.84375 146.222656 Z M 620.5 162.570312 L 620.5 150.308594 L 622.382812 150.308594 L 622.382812 162.570312 Z M 621.457031 148.265625 C 621.089844 148.265625 620.773438 148.140625 620.507812 147.890625 C 620.246094 147.644531 620.117188 147.339844 620.117188 146.992188 C 620.117188 146.640625 620.246094 146.339844 620.507812 146.089844 C 620.773438 145.839844 621.089844 145.714844 621.457031 145.714844 C 621.824219 145.714844 622.136719 145.839844 622.398438 146.089844 C 622.664062 146.339844 622.796875 146.640625 622.796875 146.992188 C 622.796875 147.339844 622.664062 147.644531 622.398438 147.890625 C 622.136719 148.140625 621.824219 148.265625 621.457031 148.265625 Z M 627.714844 155.195312 L 627.714844 162.570312 L 625.832031 162.570312 L 625.832031 150.308594 L 627.652344 150.308594 L 627.652344 152.226562 L 627.8125 152.226562 C 628.097656 151.605469 628.535156 151.105469 629.121094 150.726562 C 629.707031 150.34375 630.460938 150.152344 631.386719 150.152344 C 632.21875 150.152344 632.945312 150.320312 633.566406 150.660156 C 634.1875 150.996094 634.671875 151.507812 635.019531 152.195312 C 635.363281 152.875 635.539062 153.738281 635.539062 154.78125 L 635.539062 162.570312 L 633.652344 162.570312 L 633.652344 154.90625 C 633.652344 153.945312 633.40625 153.195312 632.902344 152.65625 C 632.402344 152.113281 631.71875 151.84375 630.84375 151.84375 C 630.242188 151.84375 629.707031 151.972656 629.230469 152.234375 C 628.765625 152.496094 628.394531 152.875 628.125 153.375 C 627.851562 153.875 627.714844 154.484375 627.714844 155.195312 Z M 654.496094 150.308594 C 654.398438 149.503906 654.011719 148.875 653.328125 148.425781 C 652.648438 147.980469 651.8125 147.757812 650.824219 147.757812 C 650.101562 147.757812 649.46875 147.875 648.925781 148.109375 C 648.386719 148.34375 647.964844 148.664062 647.664062 149.074219 C 647.363281 149.484375 647.214844 149.949219 647.214844 150.46875 C 647.214844 150.90625 647.320312 151.28125 647.527344 151.597656 C 647.742188 151.902344 648.011719 152.164062 648.339844 152.371094 C 648.671875 152.574219 649.015625 152.738281 649.378906 152.871094 C 649.742188 153 650.074219 153.105469 650.375 153.183594 L 652.035156 153.632812 C 652.460938 153.742188 652.9375 153.898438 653.457031 154.09375 C 653.984375 154.289062 654.488281 154.558594 654.964844 154.898438 C 655.449219 155.234375 655.847656 155.667969 656.164062 156.191406 C 656.476562 156.71875 656.632812 157.367188 656.632812 158.132812 C 656.632812 159.015625 656.402344 159.8125 655.9375 160.527344 C 655.480469 161.238281 654.8125 161.804688 653.929688 162.226562 C 653.050781 162.648438 651.984375 162.859375 650.726562 162.859375 C 649.558594 162.859375 648.542969 162.667969 647.6875 162.289062 C 646.835938 161.914062 646.164062 161.386719 645.675781 160.710938 C 645.191406 160.035156 644.917969 159.25 644.855469 158.355469 L 646.898438 158.355469 C 646.949219 158.972656 647.15625 159.484375 647.519531 159.886719 C 647.886719 160.289062 648.347656 160.585938 648.910156 160.78125 C 649.472656 160.972656 650.078125 161.070312 650.726562 161.070312 C 651.484375 161.070312 652.160156 160.949219 652.761719 160.703125 C 653.363281 160.453125 653.839844 160.105469 654.191406 159.664062 C 654.542969 159.21875 654.71875 158.695312 654.71875 158.101562 C 654.71875 157.558594 654.566406 157.117188 654.261719 156.777344 C 653.960938 156.433594 653.5625 156.160156 653.066406 155.945312 C 652.570312 155.734375 652.035156 155.546875 651.460938 155.386719 L 649.449219 154.8125 C 648.175781 154.445312 647.164062 153.921875 646.417969 153.238281 C 645.671875 152.558594 645.300781 151.667969 645.300781 150.566406 C 645.300781 149.652344 645.546875 148.851562 646.042969 148.171875 C 646.542969 147.484375 647.214844 146.953125 648.054688 146.574219 C 648.898438 146.191406 649.84375 146 650.886719 146 C 651.941406 146 652.878906 146.191406 653.695312 146.566406 C 654.515625 146.941406 655.164062 147.449219 655.644531 148.101562 C 656.128906 148.75 656.382812 149.488281 656.410156 150.308594 Z M 660.847656 167.167969 C 660.527344 167.167969 660.242188 167.140625 659.992188 167.085938 C 659.742188 167.039062 659.570312 166.992188 659.472656 166.945312 L 659.953125 165.285156 C 660.410156 165.398438 660.8125 165.441406 661.164062 165.410156 C 661.515625 165.378906 661.828125 165.222656 662.097656 164.941406 C 662.375 164.664062 662.628906 164.214844 662.855469 163.59375 L 663.207031 162.632812 L 658.675781 150.308594 L 660.71875 150.308594 L 664.101562 160.078125 L 664.230469 160.078125 L 667.613281 150.308594 L 669.65625 150.308594 L 664.453125 164.359375 C 664.21875 164.992188 663.929688 165.515625 663.582031 165.929688 C 663.238281 166.351562 662.835938 166.660156 662.378906 166.863281 C 661.925781 167.066406 661.414062 167.167969 660.847656 167.167969 Z M 674.027344 155.195312 L 674.027344 162.570312 L 672.144531 162.570312 L 672.144531 150.308594 L 673.964844 150.308594 L 673.964844 152.226562 L 674.125 152.226562 C 674.410156 151.605469 674.847656 151.105469 675.433594 150.726562 C 676.015625 150.34375 676.773438 150.152344 677.699219 150.152344 C 678.527344 150.152344 679.253906 150.320312 679.878906 150.660156 C 680.5 150.996094 680.984375 151.507812 681.332031 152.195312 C 681.675781 152.875 681.847656 153.738281 681.847656 154.78125 L 681.847656 162.570312 L 679.964844 162.570312 L 679.964844 154.90625 C 679.964844 153.945312 679.714844 153.195312 679.214844 152.65625 C 678.714844 152.113281 678.027344 151.84375 677.15625 151.84375 C 676.554688 151.84375 676.015625 151.972656 675.542969 152.234375 C 675.074219 152.496094 674.707031 152.875 674.433594 153.375 C 674.164062 153.875 674.027344 154.484375 674.027344 155.195312 Z M 690.269531 162.824219 C 689.121094 162.824219 688.132812 162.554688 687.300781 162.011719 C 686.472656 161.46875 685.832031 160.722656 685.386719 159.769531 C 684.941406 158.816406 684.714844 157.726562 684.714844 156.503906 C 684.714844 155.257812 684.945312 154.160156 685.402344 153.207031 C 685.863281 152.25 686.507812 151.503906 687.335938 150.964844 C 688.164062 150.421875 689.132812 150.152344 690.238281 150.152344 C 691.101562 150.152344 691.878906 150.308594 692.570312 150.628906 C 693.261719 150.949219 693.828125 151.394531 694.269531 151.972656 C 694.710938 152.546875 694.984375 153.214844 695.09375 153.980469 L 693.207031 153.980469 C 693.066406 153.421875 692.746094 152.929688 692.25 152.496094 C 691.761719 152.0625 691.101562 151.84375 690.269531 151.84375 C 689.535156 151.84375 688.894531 152.035156 688.339844 152.417969 C 687.792969 152.796875 687.363281 153.332031 687.054688 154.023438 C 686.75 154.707031 686.601562 155.515625 686.601562 156.441406 C 686.601562 157.386719 686.75 158.210938 687.046875 158.914062 C 687.351562 159.617188 687.773438 160.164062 688.324219 160.550781 C 688.875 160.9375 689.527344 161.132812 690.269531 161.132812 C 690.761719 161.132812 691.207031 161.046875 691.605469 160.878906 C 692.003906 160.707031 692.339844 160.464844 692.617188 160.144531 C 692.894531 159.824219 693.089844 159.441406 693.207031 158.996094 L 695.09375 158.996094 C 694.984375 159.71875 694.722656 160.371094 694.300781 160.949219 C 693.886719 161.523438 693.335938 161.980469 692.648438 162.324219 C 691.96875 162.65625 691.175781 162.824219 690.269531 162.824219 Z M 699.21875 162.699219 C 698.824219 162.699219 698.484375 162.554688 698.203125 162.273438 C 697.921875 161.992188 697.78125 161.65625 697.78125 161.261719 C 697.78125 160.867188 697.921875 160.527344 698.203125 160.246094 C 698.484375 159.964844 698.824219 159.824219 699.21875 159.824219 C 699.613281 159.824219 699.949219 159.964844 700.230469 160.246094 C 700.511719 160.527344 700.65625 160.867188 700.65625 161.261719 C 700.65625 161.523438 700.585938 161.761719 700.457031 161.980469 C 700.328125 162.199219 700.15625 162.371094 699.9375 162.507812 C 699.722656 162.632812 699.484375 162.699219 699.21875 162.699219 Z M 699.21875 162.699219 " fill-opacity="1" fill-rule="nonzero" data-index="6" style="opacity: 1;"></path><path fill="#6a0dad" d="M 185.726562 60.09375 C 194.550781 60.09375 201.714844 53.082031 201.714844 44.480469 C 201.714844 35.863281 194.535156 28.867188 185.726562 28.867188 C 176.902344 28.867188 169.734375 35.878906 169.734375 44.480469 C 169.734375 48.035156 170.964844 51.324219 173.023438 53.941406 L 142.59375 79.449219 C 141.8125 80.105469 141.730469 81.242188 142.402344 82.003906 C 142.769531 82.425781 143.292969 82.628906 143.804688 82.628906 C 144.234375 82.628906 144.667969 82.488281 145.019531 82.191406 L 175.59375 56.527344 C 178.335938 58.753906 181.878906 60.09375 185.726562 60.09375 Z M 99.078125 120.027344 L 76.65625 142.902344 C 73.976562 140.921875 70.640625 139.738281 67.019531 139.738281 C 58.195312 139.738281 51.03125 146.75 51.03125 155.351562 C 51.03125 163.96875 58.210938 170.964844 67.019531 170.964844 C 75.84375 170.964844 83.007812 163.953125 83.007812 155.351562 C 83.007812 151.566406 81.621094 148.105469 79.320312 145.394531 L 101.726562 122.503906 C 102.425781 121.789062 102.410156 120.632812 101.660156 119.949219 C 100.945312 119.277344 99.78125 119.292969 99.078125 120.027344 Z M 103.449219 81.492188 C 104.136719 80.757812 104.105469 79.605469 103.355469 78.933594 L 80.964844 58.738281 C 82.894531 56.152344 84.046875 52.972656 84.046875 49.546875 C 84.046875 40.929688 76.863281 33.933594 68.054688 33.933594 C 59.230469 33.933594 52.066406 40.945312 52.066406 49.546875 C 52.066406 58.164062 59.246094 65.160156 68.054688 65.160156 C 72.027344 65.160156 75.652344 63.742188 78.460938 61.390625 L 100.832031 81.601562 C 101.183594 81.925781 101.644531 82.082031 102.09375 82.082031 C 102.585938 82.082031 103.082031 81.878906 103.449219 81.492188 Z M 171.042969 121.242188 C 171.042969 129.859375 178.226562 136.855469 187.035156 136.855469 C 195.859375 136.855469 203.023438 129.84375 203.023438 121.242188 C 203.023438 112.625 195.84375 105.628906 187.035156 105.628906 C 180.761719 105.628906 175.320312 109.179688 172.703125 114.324219 L 156.921875 108.808594 C 155.964844 108.464844 154.894531 108.964844 154.558594 109.898438 C 154.210938 110.832031 154.71875 111.875 155.675781 112.203125 L 171.460938 117.71875 C 171.1875 118.859375 171.042969 120.042969 171.042969 121.242188 Z M 145.050781 145.816406 C 146.488281 145.410156 148 145.175781 149.566406 145.175781 C 158.390625 145.175781 165.554688 152.191406 165.554688 160.804688 C 165.554688 169.425781 158.375 176.421875 149.566406 176.421875 C 140.742188 176.421875 133.578125 169.410156 133.578125 160.804688 C 133.578125 155.011719 136.832031 149.945312 141.652344 147.25 L 130.941406 122.675781 C 130.542969 121.757812 130.976562 120.695312 131.917969 120.308594 C 132.859375 119.917969 133.945312 120.339844 134.34375 121.257812 Z M 126.042969 85.136719 L 118.976562 85.136719 C 108.046875 85.136719 98.902344 93.132812 97.671875 103.710938 C 97.417969 105.972656 98.070312 107.980469 99.621094 109.679688 C 101.167969 111.378906 103.144531 112.234375 105.476562 112.234375 L 139.527344 112.234375 C 141.859375 112.234375 143.820312 111.378906 145.386719 109.679688 C 146.933594 107.980469 147.585938 105.972656 147.332031 103.710938 C 146.121094 93.132812 136.960938 85.136719 126.042969 85.136719 Z M 135.601562 67.324219 C 135.601562 60.28125 129.730469 54.546875 122.519531 54.546875 C 115.304688 54.546875 109.433594 60.28125 109.433594 67.324219 C 109.433594 74.371094 115.304688 80.105469 122.519531 80.105469 C 129.730469 80.105469 135.601562 74.371094 135.601562 67.324219 Z M 135.601562 67.324219 " fill-opacity="1" fill-rule="evenodd" data-index="7"></path><g clip-path="url(#8c098c8b8b)"><path fill="#ffffff" d="M 497.542969 45.101562 L 723.355469 45.101562 L 723.355469 141.128906 L 497.542969 141.128906 Z M 497.542969 45.101562 " fill-opacity="1" fill-rule="nonzero" data-index="8" style="opacity: 1;"></path></g><g fill="#6a0dad" fill-opacity="1"><g transform="translate(471.757525, 119.825982)"><g><path d="M 18.28125 0 L 10.640625 0 L 10.640625 -70.34375 L 22.90625 -70.34375 L 44.21875 -10.78125 L 45.234375 -10.78125 L 66.546875 -70.34375 L 78.390625 -70.34375 L 78.390625 0 L 70.546875 0 L 70.546875 -57.40625 L 69.34375 -57.59375 L 48.546875 0 L 40.328125 0 L 19.484375 -57.59375 L 18.28125 -57.40625 Z M 18.28125 0 " data-index="9" style="opacity: 1;"></path></g></g></g><g fill="#6a0dad" fill-opacity="1"><g transform="translate(560.828785, 119.825982)"><g><path d="M 13.1875 -63.328125 C 11.519531 -63.328125 10.160156 -63.847656 9.109375 -64.890625 C 8.066406 -65.929688 7.546875 -67.253906 7.546875 -68.859375 C 7.546875 -70.460938 8.066406 -71.785156 9.109375 -72.828125 C 10.160156 -73.867188 11.519531 -74.390625 13.1875 -74.390625 C 14.851562 -74.390625 16.207031 -73.867188 17.25 -72.828125 C 18.289062 -71.785156 18.8125 -70.460938 18.8125 -68.859375 C 18.8125 -67.253906 18.289062 -65.929688 17.25 -64.890625 C 16.207031 -63.847656 14.851562 -63.328125 13.1875 -63.328125 Z M 9.234375 0 L 9.234375 -53.078125 L 17.078125 -53.078125 L 17.078125 0 Z M 9.234375 0 " data-index="10"></path></g></g></g><g fill="#6a0dad" fill-opacity="1"><g transform="translate(587.150766, 119.825982)"><g><path d="M 35.890625 -8.421875 L 38.40625 -2.796875 C 37.144531 -1.546875 35.492188 -0.597656 33.453125 0.046875 C 31.421875 0.691406 29.21875 1.015625 26.84375 1.015625 C 16.707031 1.015625 11.640625 -4.117188 11.640625 -14.390625 L 11.640625 -46.671875 L 2.40625 -46.671875 L 2.40625 -53.125 L 11.640625 -53.125 L 11.640625 -64.328125 L 19.484375 -65.640625 L 19.484375 -53.125 L 36.5625 -53.125 L 36.5625 -46.671875 L 19.484375 -46.671875 L 19.484375 -15.15625 C 19.484375 -9.0625 22.128906 -6.015625 27.421875 -6.015625 C 30.316406 -6.015625 32.804688 -6.816406 34.890625 -8.421875 Z M 35.890625 -8.421875 " data-index="11" style="opacity: 1;"></path></g></g></g><g fill="#6a0dad" fill-opacity="1"><g transform="translate(627.57208, 119.825982)"><g><path d="M 9.234375 0 L 9.234375 -53.078125 L 16.703125 -53.078125 L 16.703125 -44.75 L 17.703125 -44.515625 C 20.171875 -50.546875 24.820312 -53.5625 31.65625 -53.5625 C 35.28125 -53.5625 37.992188 -52.898438 39.796875 -51.578125 L 37.765625 -44.9375 L 36.8125 -44.75 C 34.820312 -45.738281 32.640625 -46.234375 30.265625 -46.234375 C 26.035156 -46.234375 22.78125 -44.644531 20.5 -41.46875 C 18.21875 -38.300781 17.078125 -33.15625 17.078125 -26.03125 L 17.078125 0 Z M 9.234375 0 " data-index="12"></path></g></g></g><g fill="#6a0dad" fill-opacity="1"><g transform="translate(668.570842, 119.825982)"><g><path d="M 21.890625 1.015625 C 16.660156 1.015625 12.578125 -0.347656 9.640625 -3.078125 C 6.710938 -5.804688 5.25 -9.703125 5.25 -14.765625 C 5.25 -17.910156 5.894531 -20.566406 7.1875 -22.734375 C 8.488281 -24.898438 10.503906 -26.664062 13.234375 -28.03125 C 15.960938 -29.394531 19.523438 -30.445312 23.921875 -31.1875 C 27.765625 -31.820312 30.6875 -32.539062 32.6875 -33.34375 C 34.695312 -34.144531 36.046875 -35.039062 36.734375 -36.03125 C 37.421875 -37.03125 37.765625 -38.285156 37.765625 -39.796875 C 37.765625 -42.203125 36.9375 -44.046875 35.28125 -45.328125 C 33.632812 -46.609375 30.984375 -47.25 27.328125 -47.25 C 23.898438 -47.25 20.957031 -46.582031 18.5 -45.25 C 16.050781 -43.925781 13.796875 -41.945312 11.734375 -39.3125 L 10.78125 -39.3125 L 6.921875 -44.75 C 9.171875 -47.601562 12.023438 -49.867188 15.484375 -51.546875 C 18.953125 -53.234375 22.898438 -54.078125 27.328125 -54.078125 C 33.585938 -54.078125 38.195312 -52.707031 41.15625 -49.96875 C 44.125 -47.226562 45.609375 -43.4375 45.609375 -38.59375 L 45.609375 -10.4375 C 45.609375 -7.488281 46.863281 -6.015625 49.375 -6.015625 C 50.207031 -6.015625 51.007812 -6.160156 51.78125 -6.453125 L 52.453125 -6.25 L 53.359375 -0.8125 C 52.785156 -0.425781 52.023438 -0.128906 51.078125 0.078125 C 50.128906 0.285156 49.160156 0.390625 48.171875 0.390625 C 45.242188 0.390625 43.035156 -0.25 41.546875 -1.53125 C 40.054688 -2.820312 39.101562 -4.71875 38.6875 -7.21875 L 37.671875 -7.3125 C 36.171875 -4.519531 34.132812 -2.429688 31.5625 -1.046875 C 29 0.328125 25.773438 1.015625 21.890625 1.015625 Z M 23.625 -5.25 C 26.570312 -5.25 29.128906 -5.925781 31.296875 -7.28125 C 33.460938 -8.644531 35.125 -10.5625 36.28125 -13.03125 C 37.4375 -15.507812 38.015625 -18.367188 38.015625 -21.609375 L 38.015625 -28.34375 L 37.09375 -28.53125 C 35.90625 -27.695312 34.460938 -27 32.765625 -26.4375 C 31.066406 -25.875 28.691406 -25.367188 25.640625 -24.921875 C 22.566406 -24.503906 20.125 -23.863281 18.3125 -23 C 16.5 -22.132812 15.207031 -21.035156 14.4375 -19.703125 C 13.664062 -18.367188 13.28125 -16.722656 13.28125 -14.765625 C 13.28125 -11.660156 14.191406 -9.296875 16.015625 -7.671875 C 17.847656 -6.054688 20.382812 -5.25 23.625 -5.25 Z M 23.625 -5.25 " data-index="13"></path></g></g></g></svg>